<svg data-v-b4dec5d4="" viewBox="0 0 64 64" xmlns="http://www.w3.org/2000/svg" fill="#fff" class="absolute top-0 right-0 left-0" style="height: auto; fill: rgb(240, 200, 80);"><path d="M22.58 9.49c5.8-.44 11.65-.13 17.47-.17 3.7-.12 3.32 4.61 3.94 7.13 2.84.06 6.55-.53 8.22 2.43 1.54 4.5 1.49 9.36 2.47 14 4.84 1.87 4.33 7.5 3.86 11.71-.31 1.54-1.68 2.5-2.67 3.61-.07 2.16-.29 4.34-1.39 6.26-2.58 1.46-5.87 2.19-8.6.68-2.13-1.45-2.63-4.06-2.53-6.47-7.59.06-15.18.03-22.76.04.09 2.38-.34 4.98-2.47 6.43-2.72 1.51-6.01.79-8.59-.68-1.1-1.91-1.35-4.08-1.4-6.25-3.72-2.46-2.96-7.18-2.68-10.99.21-2.15 2.27-3.27 3.87-4.35.99-4.63.91-9.5 2.47-14 1.68-2.95 5.37-2.36 8.22-2.42.63-2.33.15-5.58 2.57-6.96m.69 2.08c-.47 2.38-1 4.76-1.47 7.14-2.31-.02-4.62-.03-6.94-.07-3.14 4.8-2.17 10.96-3.51 16.35-1.35.33-2.73.75-3.56 1.96-.41 3.51-1.43 8.34 2.77 9.88.03 1.92-.79 4.38.96 5.81 1.12 1.28 2.94.92 4.43 1.13.6-.46 1.78-1.36 2.37-1.81 0-1.8-.01-3.6-.03-5.4 9.1-.34 18.2-.09 27.3-.16.06 1.92.08 3.84.09 5.77 1.89 1.5 5.01 2.43 6.88.39 1.63-1.47.87-3.79.9-5.69 1.34-1.04 3.19-2.11 3.03-4.08.33-3.15.36-7.62-3.84-7.79-1.36-5.39-.36-11.56-3.51-16.36-2.32.04-4.64.05-6.96.08-.47-2.39-.99-4.77-1.47-7.16-5.81-.11-11.63-.12-17.44.01z"></path><path d="M25.32 18.59c.08-1.64.2-3.29.38-4.93 4.2.02 8.4.01 12.6 0 .13 1.65.24 3.3.34 4.95-4.44-.29-8.88-.26-13.32-.02zm-8.48 3.09c10.11-.01 20.22 0 30.33 0 .72 3.51 1.23 7.05 1.69 10.6-11.23.02-22.46-.01-33.68.02.34-3.57.91-7.11 1.66-10.62z"></path><path fill="#000100" d="M23.27 11.57c5.81-.13 11.63-.12 17.44-.01.48 2.39 1 4.77 1.47 7.16 2.32-.03 4.64-.04 6.96-.08 3.15 4.8 2.15 10.97 3.51 16.36 4.2.17 4.17 4.64 3.84 7.79.16 1.97-1.69 3.04-3.03 4.08-.03 1.9.73 4.22-.9 5.69-1.87 2.04-4.99 1.11-6.88-.39-.01-1.93-.03-3.85-.09-5.77-9.1.07-18.2-.18-27.3.16.02 1.8.03 3.6.03 5.4-.59.45-1.77 1.35-2.37 1.81-1.49-.21-3.31.15-4.43-1.13-1.75-1.43-.93-3.89-.96-5.81-4.2-1.54-3.18-6.37-2.77-9.88.83-1.21 2.21-1.63 3.56-1.96 1.34-5.39.37-11.55 3.51-16.35 2.32.04 4.63.05 6.94.07.47-2.38 1-4.76 1.47-7.14m2.05 7.02c4.44-.24 8.88-.27 13.32.02-.1-1.65-.21-3.3-.34-4.95-4.2.01-8.4.02-12.6 0-.18 1.64-.3 3.29-.38 4.93m-8.48 3.09c-.75 3.51-1.32 7.05-1.66 10.62 11.22-.03 22.45 0 33.68-.02-.46-3.55-.97-7.09-1.69-10.6-10.11 0-20.22-.01-30.33 0z"></path></svg>