<svg data-v-b4dec5d4="" viewBox="0 0 64 64" xmlns="http://www.w3.org/2000/svg" fill="#fff" class="absolute top-0 right-0 left-0" style="height: auto; fill: rgb(255, 255, 255);"><g fill="#000100"><path d="M13.73 4.44c1.38-.51 2.78-1.06 4.28-.95 9.35.03 18.69.02 28.03.01 1.55-.12 2.97.51 4.39 1.03.59 1.42 1.2 2.89 1.08 4.47-.01 15.34-.01 30.68 0 46.02.12 1.58-.5 3.04-1.09 4.47-1.42.48-2.86 1.05-4.39 1-9.35.01-18.69-.02-28.04.01-1.49.11-2.88-.44-4.25-.94-.29-.49-.87-1.46-1.16-1.94-.15-17.08-.14-34.17-.01-51.25.29-.48.87-1.45 1.16-1.93m1.73 1.96l-.69.75c-.17 16.29-.05 32.59-.06 48.87-.11 1.62 1.76 2.62 3.21 2.31 9.69-.04 19.38.02 29.07-.03 1.61.11 2.67-1.73 2.33-3.19-.08-15.98.09-31.97-.08-47.95l-1.44-1.4c-10.52-.14-21.07-.12-31.6 0l-.74.64z"></path><path d="M20 7.64c.68-.02 2.04-.06 2.73-.07 1.18 3.5 2.6 6.91 3.78 10.41-2.76-.14-3.82-3.34-6.84-2.67-.22.63-.67 1.88-.9 2.5l-2.5-.36c1.55-3.15 2.64-6.49 3.73-9.81zm2.47 24.62c3.23-3.33 6.5-6.65 9.88-9.83 3.15 3.3 6.45 6.46 9.62 9.73-3.24 3.28-6.49 6.54-9.77 9.77-3.27-3.2-6.47-6.46-9.73-9.67zm18.35 12.8c.91 0 1.82.02 2.73.05 1.31 3.35 2.61 6.71 3.61 10.16-2.73.4-3.51-3.59-6.29-2.15-.83 1.43-2.09 2.09-3.76 1.97 1.35-3.3 2.67-6.62 3.71-10.03m1.43 3.28c-1.32.25-1.6 2.84-.12 3.06 1.55-.13 1.63-2.82.12-3.06z"></path></g><path d="M15.46 6.4l.74-.64c10.53-.12 21.08-.14 31.6 0l1.44 1.4c.17 15.98 0 31.97.08 47.95.34 1.46-.72 3.3-2.33 3.19-9.69.05-19.38-.01-29.07.03-1.45.31-3.32-.69-3.21-2.31.01-16.28-.11-32.58.06-48.87l.69-.75M20 7.64c-1.09 3.32-2.18 6.66-3.73 9.81l2.5.36c.23-.62.68-1.87.9-2.5 3.02-.67 4.08 2.53 6.84 2.67-1.18-3.5-2.6-6.91-3.78-10.41-.69.01-2.05.05-2.73.07m2.47 24.62c3.26 3.21 6.46 6.47 9.73 9.67 3.28-3.23 6.53-6.49 9.77-9.77-3.17-3.27-6.47-6.43-9.62-9.73-3.38 3.18-6.65 6.5-9.88 9.83m18.35 12.8c-1.04 3.41-2.36 6.73-3.71 10.03 1.67.12 2.93-.54 3.76-1.97 2.78-1.44 3.56 2.55 6.29 2.15-1-3.45-2.3-6.81-3.61-10.16-.91-.03-1.82-.05-2.73-.05z"></path><path d="M42.25 48.34c1.51.24 1.43 2.93-.12 3.06-1.48-.22-1.2-2.81.12-3.06z"></path></svg>