<svg data-v-b4dec5d4="" viewBox="0 0 64 64" xmlns="http://www.w3.org/2000/svg" fill="#fff" class="absolute top-0 right-0 left-0" style="height: auto; fill: rgb(255, 255, 255);"><g fill="#040404"><path d="M13.57 13.3c12.28.1 24.59-.32 36.86.22.03 9.5.09 19-.03 28.5-2.97 2.77-5.8 5.67-8.62 8.58-9.44-.36-18.88.03-28.31-.19.18-12.37-.01-24.74.1-37.11m1.93 2.02c.01 11.05-.03 22.1.03 33.16 8.27-.01 16.53.01 24.8-.02 0-2.71-.01-5.41.02-8.12 2.71-.01 5.41-.01 8.11-.02.04-8.34 0-16.68.03-25.01-11-.02-21.99-.04-32.99.01m26.77 26.95c.03 1.55.02 3.11-.03 4.66 1.69-1.41 3.27-2.94 4.63-4.66-1.53.02-3.07.03-4.6 0z"></path><path d="M19.47 20.47c8.27.06 16.53-.06 24.8.06.01 1.45.02 2.9.02 4.35-8.26.01-16.52.01-24.78 0-.02-1.47-.02-2.94-.04-4.41zm.05 6.93c8.25 0 16.49-.01 24.74 0 .01 1.49.03 2.99.05 4.48-8.28.29-16.59.3-24.86.01.02-1.5.04-3 .07-4.49zm-.05 7.12c4.09.16 8.18.14 12.27.01-.03 1.52-.05 3.03-.08 4.55-4.04-.02-8.09-.01-12.14-.03-.02-1.51-.02-3.02-.05-4.53z"></path></g><path d="M15.5 15.32c11-.05 21.99-.03 32.99-.01-.03 8.33.01 16.67-.03 25.01-2.7.01-5.4.01-8.11.02-.03 2.71-.02 5.41-.02 8.12-8.27.03-16.53.01-24.8.02-.06-11.06-.02-22.11-.03-33.16m3.97 5.15c.02 1.47.02 2.94.04 4.41 8.26.01 16.52.01 24.78 0 0-1.45-.01-2.9-.02-4.35-8.27-.12-16.53 0-24.8-.06m.05 6.93c-.03 1.49-.05 2.99-.07 4.49 8.27.29 16.58.28 24.86-.01-.02-1.49-.04-2.99-.05-4.48-8.25-.01-16.49 0-24.74 0m-.05 7.12c.03 1.51.03 3.02.05 4.53 4.05.02 8.1.01 12.14.03.03-1.52.05-3.03.08-4.55-4.09.13-8.18.15-12.27-.01z"></path><path d="M42.27 42.27c1.53.03 3.07.02 4.6 0-1.36 1.72-2.94 3.25-4.63 4.66.05-1.55.06-3.11.03-4.66z"></path></svg>