

<svg data-v-b4dec5d4="" viewBox="0 0 64 64" xmlns="http://www.w3.org/2000/svg" fill="#fff" class="absolute top-0 right-0 left-0" style="height: auto; fill: rgb(255, 255, 255);"><path d="M20.7 5.27c4.76-1.88 9.8-3.59 14.98-3.04 2.73 1.38 6.55 1.07 8.1 4.13 1.23 1.89 3.62 2.29 5.47 3.34 1.23 4.35 1.78 8.77 2.17 13.3 2.31-.66 5.56-.37 5.5 2.73-.28 4.87-.19 12.35-6.31 13.49-1.59 4.37-.15 9.13-.86 13.66-2.3 2.06-3.82 4.98-6.63 6.44-7 3.1-15.25 2.98-22.16-.34-2.27-1.41-4.32-3.13-6.39-4.81-.6-4.85.74-9.89-.63-14.61-4.98.08-6.77-5.38-6.88-9.49.12-2.07-.43-4.39.71-6.26 1.08-1.21 2.78-1.21 4.24-1.53.87-3.24-.29-6.78 1.34-9.81 1.39-3.18 3.39-7.05 7.35-7.2m1.29 2.29c-.78.07-2.35.2-3.14.27-1.84 2.4-3.83 4.97-4.02 8.12-.07 4.97-1.54 9.77-1.81 14.73 1.11 3.59 2.75 6.99 3.82 10.59-.05 3.89-.2 7.78-.15 11.67 6.58 6.69 17.19 8.1 25.57 4.23 2.32-1.34 3.55-3.83 5.37-5.69.25-3.48-.12-6.97.04-10.44.93-3.71 2.02-7.4 2.68-11.17-.07-3.71-1.81-7.2-1.7-10.94.08-2.75-.98-5.29-1.54-7.93-2.81-.62-5.01-2.34-6.5-4.78-.46.17-1.37.5-1.83.67-.93-1.33-2.24-2.37-3.91-2.53-4.44.28-9.02.74-12.88 3.2m30.69 17.02c-.18 3.58.08 7.21-1.21 10.65h2.72c.31-3.23 1.39-6.53.56-9.77-.52-.22-1.56-.66-2.07-.88M8.74 25.97c.01 3.46-.43 7.8 2.57 10.23.57-1.77-.18-3.44-.71-5.09.44-1.95 1.95-6.94-1.86-5.14z"></path><path d="M16.34 34.15c-1-4.68-.86-10.81 2.78-14.35 3.34-.58 7.19-.81 10.12 1.22 1.56 1.08 3.54.32 5.29.36.36-.42 1.08-1.27 1.45-1.7 3.42-.25 6.84-.09 10.25.28 1.72 4.84 2.56 10.31.82 15.25-1.1.92-2.39 1.56-3.62 2.29-.61 5.94 1.01 13.34-4.1 17.72-5.38 1.38-12.3 2.24-16.41-2.35-2.03-4.73-2-10.13-2.44-15.21-1.73-.65-4.02-1.29-4.14-3.51m20.18-5.75c-1.35 3.12 2.29 4.94 4.38 6.37 1.56-.81 3.05-1.73 4.51-2.72.02-2.51-.03-5.05-1.02-7.4-2.72 1.02-5.45 2.12-7.87 3.75m-18.42.61c.33 3.59 3.72 6.1 7.19 4.69 1.46-.93 4.49-2.53 2.94-4.6-2.15-2.41-5.68-3.07-8.73-3.71-.46 1.21-.93 2.41-1.4 3.62m9.64 5.53c-.9 2.9 2.39 3.59 4.46 3.83 2.2.23 4-1.28 5.74-2.38-1.47-2.31-3.49-.86-5.31.06-1.46-1.01-3.1-1.56-4.89-1.51m-2 16.46c4.43.07 8.88.21 13.3-.21-.61-7.17-12.55-6.68-13.3.21z"></path><g fill="#020202"><path d="M21.99 7.56c3.86-2.46 8.44-2.92 12.88-3.2 1.67.16 2.98 1.2 3.91 2.53.46-.17 1.37-.5 1.83-.67 1.49 2.44 3.69 4.16 6.5 4.78.56 2.64 1.62 5.18 1.54 7.93-.11 3.74 1.63 7.23 1.7 10.94-.66 3.77-1.75 7.46-2.68 11.17-.16 3.47.21 6.96-.04 10.44-1.82 1.86-3.05 4.35-5.37 5.69-8.38 3.87-18.99 2.46-25.57-4.23-.05-3.89.1-7.78.15-11.67-1.07-3.6-2.71-7-3.82-10.59.27-4.96 1.74-9.76 1.81-14.73.19-3.15 2.18-5.72 4.02-8.12.79-.07 2.36-.2 3.14-.27m-5.65 26.59c.12 2.22 2.41 2.86 4.14 3.51.44 5.08.41 10.48 2.44 15.21 4.11 4.59 11.03 3.73 16.41 2.35 5.11-4.38 3.49-11.78 4.1-17.72 1.23-.73 2.52-1.37 3.62-2.29 1.74-4.94.9-10.41-.82-15.25-3.41-.37-6.83-.53-10.25-.28-.37.43-1.09 1.28-1.45 1.7-1.75-.04-3.73.72-5.29-.36-2.93-2.03-6.78-1.8-10.12-1.22-3.64 3.54-3.78 9.67-2.78 14.35z"></path><path d="M36.52 28.4c2.42-1.63 5.15-2.73 7.87-3.75.99 2.35 1.04 4.89 1.02 7.4-1.46.99-2.95 1.91-4.51 2.72-2.09-1.43-5.73-3.25-4.38-6.37zm16.16-3.82c.51.22 1.55.66 2.07.88.83 3.24-.25 6.54-.56 9.77h-2.72c1.29-3.44 1.03-7.07 1.21-10.65zM8.74 25.97c3.81-1.8 2.3 3.19 1.86 5.14.53 1.65 1.28 3.32.71 5.09-3-2.43-2.56-6.77-2.57-10.23zm9.36 3.04c.47-1.21.94-2.41 1.4-3.62 3.05.64 6.58 1.3 8.73 3.71 1.55 2.07-1.48 3.67-2.94 4.6-3.47 1.41-6.86-1.1-7.19-4.69zm9.64 5.53c1.79-.05 3.43.5 4.89 1.51 1.82-.92 3.84-2.37 5.31-.06-1.74 1.1-3.54 2.61-5.74 2.38-2.07-.24-5.36-.93-4.46-3.83zm-2 16.46c.75-6.89 12.69-7.38 13.3-.21-4.42.42-8.87.28-13.3.21z"></path></g></svg>